<mxfile host="app.diagrams.net" modified="2024-06-05T21:03:30.121Z" agent="Mozilla/5.0 (Windows NT 10.0; Win64; x64) AppleWebKit/537.36 (KHTML, like Gecko) Chrome/123.0.0.0 Safari/537.36 OPR/109.0.0.0" etag="Eot1P47542zMyCX1GFqW" version="24.4.14" type="github">
  <diagram name="Страница — 1" id="CgqQpAoLhukd6IiaSoBn">
    <mxGraphModel dx="2208" dy="699" grid="1" gridSize="10" guides="1" tooltips="1" connect="1" arrows="1" fold="1" page="1" pageScale="1" pageWidth="827" pageHeight="1169" math="0" shadow="0">
      <root>
        <mxCell id="0" />
        <mxCell id="1" parent="0" />
        <mxCell id="TGviwKS2q0RqUHTQ-3Ez-1" value="home" style="rounded=0;whiteSpace=wrap;html=1;" vertex="1" parent="1">
          <mxGeometry x="560" y="120" width="120" height="60" as="geometry" />
        </mxCell>
        <mxCell id="TGviwKS2q0RqUHTQ-3Ez-11" style="edgeStyle=orthogonalEdgeStyle;rounded=0;orthogonalLoop=1;jettySize=auto;html=1;entryX=0.5;entryY=1;entryDx=0;entryDy=0;startArrow=classic;startFill=1;" edge="1" parent="1" source="TGviwKS2q0RqUHTQ-3Ez-2" target="TGviwKS2q0RqUHTQ-3Ez-1">
          <mxGeometry relative="1" as="geometry" />
        </mxCell>
        <mxCell id="TGviwKS2q0RqUHTQ-3Ez-13" style="edgeStyle=orthogonalEdgeStyle;rounded=0;orthogonalLoop=1;jettySize=auto;html=1;" edge="1" parent="1" source="TGviwKS2q0RqUHTQ-3Ez-2" target="TGviwKS2q0RqUHTQ-3Ez-4">
          <mxGeometry relative="1" as="geometry" />
        </mxCell>
        <mxCell id="TGviwKS2q0RqUHTQ-3Ez-14" style="edgeStyle=orthogonalEdgeStyle;rounded=0;orthogonalLoop=1;jettySize=auto;html=1;" edge="1" parent="1" source="TGviwKS2q0RqUHTQ-3Ez-2" target="TGviwKS2q0RqUHTQ-3Ez-5">
          <mxGeometry relative="1" as="geometry" />
        </mxCell>
        <mxCell id="TGviwKS2q0RqUHTQ-3Ez-15" style="edgeStyle=orthogonalEdgeStyle;rounded=0;orthogonalLoop=1;jettySize=auto;html=1;startArrow=classic;startFill=1;" edge="1" parent="1" source="TGviwKS2q0RqUHTQ-3Ez-2" target="TGviwKS2q0RqUHTQ-3Ez-6">
          <mxGeometry relative="1" as="geometry" />
        </mxCell>
        <mxCell id="TGviwKS2q0RqUHTQ-3Ez-16" style="edgeStyle=orthogonalEdgeStyle;rounded=0;orthogonalLoop=1;jettySize=auto;html=1;" edge="1" parent="1" source="TGviwKS2q0RqUHTQ-3Ez-2" target="TGviwKS2q0RqUHTQ-3Ez-7">
          <mxGeometry relative="1" as="geometry" />
        </mxCell>
        <mxCell id="TGviwKS2q0RqUHTQ-3Ez-17" style="edgeStyle=orthogonalEdgeStyle;rounded=0;orthogonalLoop=1;jettySize=auto;html=1;" edge="1" parent="1" source="TGviwKS2q0RqUHTQ-3Ez-2" target="TGviwKS2q0RqUHTQ-3Ez-8">
          <mxGeometry relative="1" as="geometry" />
        </mxCell>
        <mxCell id="TGviwKS2q0RqUHTQ-3Ez-18" style="edgeStyle=orthogonalEdgeStyle;rounded=0;orthogonalLoop=1;jettySize=auto;html=1;" edge="1" parent="1" source="TGviwKS2q0RqUHTQ-3Ez-2" target="TGviwKS2q0RqUHTQ-3Ez-9">
          <mxGeometry relative="1" as="geometry" />
        </mxCell>
        <mxCell id="TGviwKS2q0RqUHTQ-3Ez-2" value="contacts" style="rounded=0;whiteSpace=wrap;html=1;" vertex="1" parent="1">
          <mxGeometry x="560" y="240" width="120" height="60" as="geometry" />
        </mxCell>
        <mxCell id="TGviwKS2q0RqUHTQ-3Ez-19" style="edgeStyle=orthogonalEdgeStyle;rounded=0;orthogonalLoop=1;jettySize=auto;html=1;entryX=0.5;entryY=0;entryDx=0;entryDy=0;" edge="1" parent="1" source="TGviwKS2q0RqUHTQ-3Ez-3" target="TGviwKS2q0RqUHTQ-3Ez-1">
          <mxGeometry relative="1" as="geometry">
            <Array as="points">
              <mxPoint x="40" y="390" />
              <mxPoint x="40" y="100" />
              <mxPoint x="620" y="100" />
            </Array>
          </mxGeometry>
        </mxCell>
        <mxCell id="TGviwKS2q0RqUHTQ-3Ez-3" value="about" style="rounded=0;whiteSpace=wrap;html=1;" vertex="1" parent="1">
          <mxGeometry x="80" y="360" width="120" height="60" as="geometry" />
        </mxCell>
        <mxCell id="TGviwKS2q0RqUHTQ-3Ez-20" style="edgeStyle=orthogonalEdgeStyle;rounded=0;orthogonalLoop=1;jettySize=auto;html=1;entryX=0.5;entryY=0;entryDx=0;entryDy=0;" edge="1" parent="1" source="TGviwKS2q0RqUHTQ-3Ez-4" target="TGviwKS2q0RqUHTQ-3Ez-1">
          <mxGeometry relative="1" as="geometry">
            <Array as="points">
              <mxPoint x="300" y="440" />
              <mxPoint x="40" y="440" />
              <mxPoint x="40" y="100" />
              <mxPoint x="620" y="100" />
            </Array>
          </mxGeometry>
        </mxCell>
        <mxCell id="TGviwKS2q0RqUHTQ-3Ez-21" style="edgeStyle=orthogonalEdgeStyle;rounded=0;orthogonalLoop=1;jettySize=auto;html=1;startArrow=classic;startFill=1;" edge="1" parent="1" source="TGviwKS2q0RqUHTQ-3Ez-4" target="TGviwKS2q0RqUHTQ-3Ez-5">
          <mxGeometry relative="1" as="geometry" />
        </mxCell>
        <mxCell id="TGviwKS2q0RqUHTQ-3Ez-4" value="login" style="rounded=0;whiteSpace=wrap;html=1;" vertex="1" parent="1">
          <mxGeometry x="240" y="360" width="120" height="60" as="geometry" />
        </mxCell>
        <mxCell id="TGviwKS2q0RqUHTQ-3Ez-22" style="edgeStyle=orthogonalEdgeStyle;rounded=0;orthogonalLoop=1;jettySize=auto;html=1;entryX=0.5;entryY=0;entryDx=0;entryDy=0;" edge="1" parent="1" source="TGviwKS2q0RqUHTQ-3Ez-5" target="TGviwKS2q0RqUHTQ-3Ez-1">
          <mxGeometry relative="1" as="geometry">
            <Array as="points">
              <mxPoint x="460" y="440" />
              <mxPoint x="40" y="440" />
              <mxPoint x="40" y="100" />
              <mxPoint x="620" y="100" />
            </Array>
          </mxGeometry>
        </mxCell>
        <mxCell id="TGviwKS2q0RqUHTQ-3Ez-5" value="registration" style="rounded=0;whiteSpace=wrap;html=1;" vertex="1" parent="1">
          <mxGeometry x="400" y="360" width="120" height="60" as="geometry" />
        </mxCell>
        <mxCell id="TGviwKS2q0RqUHTQ-3Ez-23" style="edgeStyle=orthogonalEdgeStyle;rounded=0;orthogonalLoop=1;jettySize=auto;html=1;entryX=0.5;entryY=0;entryDx=0;entryDy=0;" edge="1" parent="1" source="TGviwKS2q0RqUHTQ-3Ez-6" target="TGviwKS2q0RqUHTQ-3Ez-1">
          <mxGeometry relative="1" as="geometry">
            <Array as="points">
              <mxPoint x="620" y="440" />
              <mxPoint x="40" y="440" />
              <mxPoint x="40" y="100" />
              <mxPoint x="620" y="100" />
            </Array>
          </mxGeometry>
        </mxCell>
        <mxCell id="TGviwKS2q0RqUHTQ-3Ez-6" value="profile" style="rounded=0;whiteSpace=wrap;html=1;" vertex="1" parent="1">
          <mxGeometry x="560" y="360" width="120" height="60" as="geometry" />
        </mxCell>
        <mxCell id="TGviwKS2q0RqUHTQ-3Ez-24" style="edgeStyle=orthogonalEdgeStyle;rounded=0;orthogonalLoop=1;jettySize=auto;html=1;entryX=0.5;entryY=0;entryDx=0;entryDy=0;" edge="1" parent="1" source="TGviwKS2q0RqUHTQ-3Ez-7" target="TGviwKS2q0RqUHTQ-3Ez-1">
          <mxGeometry relative="1" as="geometry">
            <Array as="points">
              <mxPoint x="780" y="440" />
              <mxPoint x="40" y="440" />
              <mxPoint x="40" y="100" />
              <mxPoint x="620" y="100" />
            </Array>
          </mxGeometry>
        </mxCell>
        <mxCell id="TGviwKS2q0RqUHTQ-3Ez-26" style="edgeStyle=orthogonalEdgeStyle;rounded=0;orthogonalLoop=1;jettySize=auto;html=1;entryX=0.25;entryY=0;entryDx=0;entryDy=0;" edge="1" parent="1" source="TGviwKS2q0RqUHTQ-3Ez-7" target="TGviwKS2q0RqUHTQ-3Ez-3">
          <mxGeometry relative="1" as="geometry">
            <Array as="points">
              <mxPoint x="780" y="460" />
              <mxPoint x="20" y="460" />
              <mxPoint x="20" y="340" />
              <mxPoint x="110" y="340" />
            </Array>
          </mxGeometry>
        </mxCell>
        <mxCell id="TGviwKS2q0RqUHTQ-3Ez-27" style="edgeStyle=orthogonalEdgeStyle;rounded=0;orthogonalLoop=1;jettySize=auto;html=1;entryX=0.25;entryY=0;entryDx=0;entryDy=0;" edge="1" parent="1" source="TGviwKS2q0RqUHTQ-3Ez-7" target="TGviwKS2q0RqUHTQ-3Ez-4">
          <mxGeometry relative="1" as="geometry">
            <Array as="points">
              <mxPoint x="780" y="460" />
              <mxPoint x="20" y="460" />
              <mxPoint x="20" y="340" />
              <mxPoint x="270" y="340" />
            </Array>
          </mxGeometry>
        </mxCell>
        <mxCell id="TGviwKS2q0RqUHTQ-3Ez-28" style="edgeStyle=orthogonalEdgeStyle;rounded=0;orthogonalLoop=1;jettySize=auto;html=1;entryX=0.25;entryY=0;entryDx=0;entryDy=0;" edge="1" parent="1" source="TGviwKS2q0RqUHTQ-3Ez-7" target="TGviwKS2q0RqUHTQ-3Ez-5">
          <mxGeometry relative="1" as="geometry">
            <Array as="points">
              <mxPoint x="780" y="460" />
              <mxPoint x="20" y="460" />
              <mxPoint x="20" y="340" />
              <mxPoint x="430" y="340" />
            </Array>
          </mxGeometry>
        </mxCell>
        <mxCell id="TGviwKS2q0RqUHTQ-3Ez-29" style="edgeStyle=orthogonalEdgeStyle;rounded=0;orthogonalLoop=1;jettySize=auto;html=1;entryX=0.25;entryY=0;entryDx=0;entryDy=0;" edge="1" parent="1" source="TGviwKS2q0RqUHTQ-3Ez-7" target="TGviwKS2q0RqUHTQ-3Ez-6">
          <mxGeometry relative="1" as="geometry">
            <Array as="points">
              <mxPoint x="780" y="460" />
              <mxPoint x="20" y="460" />
              <mxPoint x="20" y="340" />
              <mxPoint x="590" y="340" />
            </Array>
          </mxGeometry>
        </mxCell>
        <mxCell id="TGviwKS2q0RqUHTQ-3Ez-30" style="edgeStyle=orthogonalEdgeStyle;rounded=0;orthogonalLoop=1;jettySize=auto;html=1;entryX=0.25;entryY=0;entryDx=0;entryDy=0;" edge="1" parent="1" source="TGviwKS2q0RqUHTQ-3Ez-7" target="TGviwKS2q0RqUHTQ-3Ez-2">
          <mxGeometry relative="1" as="geometry">
            <Array as="points">
              <mxPoint x="780" y="460" />
              <mxPoint x="20" y="460" />
              <mxPoint x="20" y="220" />
              <mxPoint x="590" y="220" />
            </Array>
          </mxGeometry>
        </mxCell>
        <mxCell id="TGviwKS2q0RqUHTQ-3Ez-7" value="add contact" style="rounded=0;whiteSpace=wrap;html=1;" vertex="1" parent="1">
          <mxGeometry x="720" y="360" width="120" height="60" as="geometry" />
        </mxCell>
        <mxCell id="TGviwKS2q0RqUHTQ-3Ez-32" style="edgeStyle=orthogonalEdgeStyle;rounded=0;orthogonalLoop=1;jettySize=auto;html=1;entryX=0.25;entryY=0;entryDx=0;entryDy=0;" edge="1" parent="1" source="TGviwKS2q0RqUHTQ-3Ez-8" target="TGviwKS2q0RqUHTQ-3Ez-3">
          <mxGeometry relative="1" as="geometry">
            <Array as="points">
              <mxPoint x="940" y="480" />
              <mxPoint y="480" />
              <mxPoint y="320" />
              <mxPoint x="110" y="320" />
            </Array>
          </mxGeometry>
        </mxCell>
        <mxCell id="TGviwKS2q0RqUHTQ-3Ez-33" style="edgeStyle=orthogonalEdgeStyle;rounded=0;orthogonalLoop=1;jettySize=auto;html=1;entryX=0.25;entryY=0;entryDx=0;entryDy=0;" edge="1" parent="1" source="TGviwKS2q0RqUHTQ-3Ez-8" target="TGviwKS2q0RqUHTQ-3Ez-4">
          <mxGeometry relative="1" as="geometry">
            <Array as="points">
              <mxPoint x="940" y="480" />
              <mxPoint y="480" />
              <mxPoint y="320" />
              <mxPoint x="270" y="320" />
            </Array>
          </mxGeometry>
        </mxCell>
        <mxCell id="TGviwKS2q0RqUHTQ-3Ez-36" style="edgeStyle=orthogonalEdgeStyle;rounded=0;orthogonalLoop=1;jettySize=auto;html=1;entryX=0.25;entryY=0;entryDx=0;entryDy=0;" edge="1" parent="1" source="TGviwKS2q0RqUHTQ-3Ez-8" target="TGviwKS2q0RqUHTQ-3Ez-5">
          <mxGeometry relative="1" as="geometry">
            <Array as="points">
              <mxPoint x="940" y="480" />
              <mxPoint y="480" />
              <mxPoint y="320" />
              <mxPoint x="430" y="320" />
            </Array>
          </mxGeometry>
        </mxCell>
        <mxCell id="TGviwKS2q0RqUHTQ-3Ez-37" style="edgeStyle=orthogonalEdgeStyle;rounded=0;orthogonalLoop=1;jettySize=auto;html=1;entryX=0.25;entryY=0;entryDx=0;entryDy=0;" edge="1" parent="1" source="TGviwKS2q0RqUHTQ-3Ez-8" target="TGviwKS2q0RqUHTQ-3Ez-6">
          <mxGeometry relative="1" as="geometry">
            <Array as="points">
              <mxPoint x="940" y="480" />
              <mxPoint y="480" />
              <mxPoint y="320" />
              <mxPoint x="590" y="320" />
            </Array>
          </mxGeometry>
        </mxCell>
        <mxCell id="TGviwKS2q0RqUHTQ-3Ez-8" value="edit contact" style="rounded=0;whiteSpace=wrap;html=1;" vertex="1" parent="1">
          <mxGeometry x="880" y="360" width="120" height="60" as="geometry" />
        </mxCell>
        <mxCell id="TGviwKS2q0RqUHTQ-3Ez-9" value="delete contact" style="rounded=0;whiteSpace=wrap;html=1;" vertex="1" parent="1">
          <mxGeometry x="1040" y="360" width="120" height="60" as="geometry" />
        </mxCell>
        <mxCell id="TGviwKS2q0RqUHTQ-3Ez-12" style="edgeStyle=orthogonalEdgeStyle;rounded=0;orthogonalLoop=1;jettySize=auto;html=1;entryX=0.5;entryY=0.167;entryDx=0;entryDy=0;entryPerimeter=0;" edge="1" parent="1" source="TGviwKS2q0RqUHTQ-3Ez-2" target="TGviwKS2q0RqUHTQ-3Ez-3">
          <mxGeometry relative="1" as="geometry" />
        </mxCell>
      </root>
    </mxGraphModel>
  </diagram>
</mxfile>
